<?xml version="1.0" encoding="UTF-8" standalone="no"?>
<!-- Created with Inkscape (http://www.inkscape.org/) -->

<svg
   xmlns:dc="http://purl.org/dc/elements/1.1/"
   xmlns:cc="http://creativecommons.org/ns#"
   xmlns:rdf="http://www.w3.org/1999/02/22-rdf-syntax-ns#"
   xmlns:svg="http://www.w3.org/2000/svg"
   xmlns="http://www.w3.org/2000/svg"
   xmlns:sodipodi="http://sodipodi.sourceforge.net/DTD/sodipodi-0.dtd"
   xmlns:inkscape="http://www.inkscape.org/namespaces/inkscape"
   width="744.09448819"
   height="1052.3622047"
   id="svg2"
   version="1.1"
   inkscape:version="0.48.4 r9939"
   sodipodi:docname="cfs_logo.svg">
  <defs
     id="defs4">
    <clipPath
       id="clipPath2999"
       clipPathUnits="userSpaceOnUse">
      <path
         id="path3001"
         d="m 0,841.89 595.276,0 L 595.276,0 0,0 0,841.89 z" />
    </clipPath>
  </defs>
  <sodipodi:namedview
     id="base"
     pagecolor="#ffffff"
     bordercolor="#666666"
     borderopacity="1.0"
     inkscape:pageopacity="0.0"
     inkscape:pageshadow="2"
     inkscape:zoom="1.979899"
     inkscape:cx="282.38886"
     inkscape:cy="596.12526"
     inkscape:document-units="px"
     inkscape:current-layer="layer1"
     showgrid="false"
     inkscape:window-width="1280"
     inkscape:window-height="961"
     inkscape:window-x="1272"
     inkscape:window-y="-8"
     inkscape:window-maximized="1" />
  <metadata
     id="metadata7">
    <rdf:RDF>
      <cc:Work
         rdf:about="">
        <dc:format>image/svg+xml</dc:format>
        <dc:type
           rdf:resource="http://purl.org/dc/dcmitype/StillImage" />
        <dc:title />
      </cc:Work>
    </rdf:RDF>
  </metadata>
  <g
     inkscape:label="Layer 1"
     inkscape:groupmode="layer"
     id="layer1">
    <g
       transform="matrix(1.25,0,0,-1.25,9.2238775,1067.6411)"
       inkscape:label="logo"
       id="g2993">
      <g
         id="g2995">
        <g
           clip-path="url(#clipPath2999)"
           id="g2997">
          <path
             id="path3003"
             style="fill:#90bcd3;fill-opacity:1;opacity:1"
             d="m 292.648,375.557 c 0,0 -41.648,13.833 -46.984,76.536 0,0 21.836,6.63 22.071,26.13 0,0 19.932,8.167 50.598,0 0,0 1,-22 20.09,-25.734 0,0 6.244,-47.099 -45.775,-76.932 m 56.019,84.166 c -25,1.667 -22,26.5 -22,26.5 -41.166,12 -67.834,0 -67.834,0 3.167,-25.333 -22.5,-27 -22.5,-27 -1,-72.667 55.667,-94.333 55.667,-94.333 64,29.334 56.667,94.833 56.667,94.833"
             inkscape:connector-curvature="0" />
          <path
             id="path3005"
             style="fill:#90bcd3;fill-opacity:1;opacity:1"
             d="m 293.463,402.14 c -8.399,0 -15.208,6.809 -15.208,15.209 0,7.644 5.641,13.971 12.987,15.047 l -8.57,33.494 21.333,0 -8.17,-33.517 c 7.272,-1.14 12.837,-7.432 12.837,-15.024 0,-8.4 -6.81,-15.209 -15.209,-15.209 m 7.287,33.75 9.736,34.75 -34.38,0 10.311,-34.917 c -7.75,-2.25 -13.186,-8.514 -13.186,-18.683 0,-11.174 9.059,-20.232 20.232,-20.232 11.174,0 20.232,9.058 20.232,20.232 0,10.1 -4.195,16.183 -12.945,18.85"
             inkscape:connector-curvature="0" />
        </g>
      </g>
    </g>
    <path
       style="fill:#90bcd3;fill-opacity:1"
       d="m 306.02948,516.86494 c -0.1043,-0.6259 -0.43251,-3.43153 -0.60009,-5.12968 -0.47363,-4.79952 -0.68504,-8.84476 -0.7399,-14.15792 -0.0242,-2.34516 -0.0174,-3.93033 0.0168,-3.93063 0.15815,-0.001 1.60033,-0.19789 2.2671,-0.3089 2.97882,-0.49593 5.82867,-1.29382 8.58629,-2.40395 0.94691,-0.3812 3.12645,-1.42781 3.96911,-1.90596 3.42378,-1.94275 6.30473,-4.4073 8.43802,-7.21841 3.9961,-5.26579 5.72467,-12.2198 5.00622,-20.13991 -0.0567,-0.62504 -0.10565,-1.28789 -0.10878,-1.473 l -0.006,-0.33658 0.53665,-0.21844 c 0.92091,-0.37485 2.87934,-1.0632 4.26158,-1.49787 7.64315,-2.40351 16.65159,-4.00031 26.04299,-4.61626 5.35706,-0.35136 11.5258,-0.37397 17.10946,-0.0627 6.1007,0.34006 13.20756,1.18737 19.17712,2.28636 l 1.27847,0.23537 0,6.20349 c 0,3.41191 -0.0213,6.20306 -0.0473,6.20255 -0.026,-5e-4 -0.23202,-0.0451 -0.45772,-0.099 -0.83611,-0.1998 -3.55842,-0.73433 -5.3033,-1.04131 -10.47275,-1.84251 -20.66636,-2.3759 -30.62025,-1.60222 -6.07779,0.4724 -12.2456,1.5398 -17.362,3.00466 -1.11282,0.31861 -2.92827,0.90804 -3.35572,1.08953 l -0.23056,0.0979 -0.0386,0.68043 c -0.1261,2.22331 -0.28273,3.53864 -0.61456,5.16099 -1.19222,5.82875 -4.09824,11.03395 -8.76197,15.69423 -1.87679,1.87539 -3.46558,3.20835 -5.65485,4.74429 -3.43185,2.40772 -7.60379,4.59123 -11.44313,5.98912 -0.78897,0.28726 -1.08907,0.42427 -1.08907,0.49721 0,0.0554 0.0855,0.97859 0.19,2.05158 0.35295,3.62405 0.7796,6.96621 1.32969,10.41609 0.17117,1.07345 0.31121,1.96128 0.31121,1.97295 0,0.0117 -2.71192,0.0212 -6.02649,0.0212 l -6.02648,0 -0.0342,-0.20519 0,0 z"
       id="path2989"
       inkscape:connector-curvature="0" />
    <path
       style="fill:#90bcd3;fill-opacity:1"
       d="M 365.47462,516.86494 C 365.3637,516.51935 354.419,479.43728 354.419,479.40708 c 0,-0.0156 9.64842,-0.0283 21.44093,-0.0283 17.1268,0 21.43483,0.0159 21.41065,0.0789 -0.0166,0.0434 -2.39402,8.51653 -5.28305,18.82918 -2.88903,10.31264 -5.26051,18.75799 -5.26996,18.76744 -0.009,0.009 -1.18215,0.01 -2.60599,7.1e-4 l -2.58879,-0.0165 3.87183,-15.87833 c 2.1295,-8.73309 3.87246,-15.88544 3.87323,-15.89412 7.8e-4,-0.009 -6.00742,-0.0158 -13.35154,-0.0158 -10.87488,0 -13.35296,0.0152 -13.35296,0.0816 0,0.0449 1.80216,7.12621 4.0048,15.73628 2.20264,8.61007 4.02399,15.73281 4.04746,15.8283 l 0.0426,0.17362 -2.55889,0 -2.5589,0 -0.0659,-0.20519 0,0 z"
       id="path2991"
       inkscape:connector-curvature="0" />
    <path
       style="fill:#31865c;fill-opacity:1"
       d="m 368.371,608.417 c -21.62424,-11.52099 -39.21402,-29.76279 -50.16393,-52.02346 -5.72868,-11.64615 -8.95943,-21.85962 -11.31607,-35.77392 -1.21389,-7.16716 -2.60335,-25.66922 -2.00091,-26.644 0.15775,-0.25524 0.78936,-0.46407 1.40358,-0.46407 2.04599,0 8.4491,-2.02223 11.8903,-3.75519 6.77639,-3.41253 11.21507,-8.40139 13.48582,-15.15739 1.13706,-3.38305 1.37088,-4.97432 1.38797,-9.44624 l 0.0206,-5.37785 4.40495,-1.35124 c 5.91152,-1.81339 15.16226,-3.66173 21.86139,-4.368 7.14913,-0.75372 27.07981,-0.29209 34.16099,0.79124 5.59497,0.85595 17.37888,3.35898 21.2132,4.50591 l 2.27284,0.67986 0.34619,4.79765 c 0.66928,9.27504 3.04328,15.15577 8.22877,20.38376 4.18096,4.21523 9.90474,6.84119 16.55259,7.59401 l 2.90419,0.32888 0,7.38773 c 0,18.82737 -4.27906,37.91981 -12.27918,54.78757 -8.50404,17.93025 -23.26407,34.60953 -40.80923,46.11568 -4.69285,3.07758 -16.99229,9.77434 -17.92313,9.75873 -0.25121,-0.004 -2.78961,-1.25056 -5.64088,-2.76966 l 0,0 z m 13.01281,-13.79099 c 26.66422,-16.66409 45.2092,-43.21457 49.98848,-71.5675 1.16018,-6.88271 1.75337,-15.475 1.29729,-18.79108 -0.34069,-2.47713 -0.3675,-2.50789 -2.7077,-3.10772 -8.08619,-2.0726 -14.80437,-8.1462 -18.82908,-17.02252 -1.74761,-3.85427 -3.48503,-10.16252 -3.48503,-12.65351 0,-1.48988 -0.1974,-1.71914 -1.89403,-2.19962 -3.90479,-1.10583 -15.54999,-3.06452 -21.49378,-3.61519 -11.86429,-1.09917 -28.19809,0.25123 -37.34761,3.08775 l -3.40926,1.05693 0,2.05338 c 0,5.55608 -3.36313,13.09078 -8.19846,18.36769 -3.49371,3.81276 -10.5944,8.68842 -15.60899,10.71783 -2.3088,0.93438 -3.45629,1.67566 -3.46045,2.23548 -0.0136,1.83228 1.63423,13.59671 2.57104,18.35535 3.59665,18.26973 11.40351,36.25173 21.37959,49.24494 8.47118,11.03317 19.37953,20.26843 30.10784,25.49001 l 4.67769,2.27668 1.81727,-1.09641 c 0.9995,-0.60302 3.06733,-1.87764 4.59519,-2.83249 l 0,0 z"
       id="path3016"
       inkscape:connector-curvature="0" />
    <path
       style="fill:#31865c;fill-opacity:1"
       d="m 368.7569,570.14383 c -6.59985,-2.25835 -11.6007,-6.34315 -14.55768,-11.891 -6.68073,-12.53433 -2.36886,-27.79726 9.45635,-33.47317 1.97223,-0.94663 3.58592,-1.90964 3.58598,-2.14003 7e-5,-0.23038 -2.36837,-8.41261 -5.2632,-18.18274 -2.89482,-9.77013 -5.65308,-19.12758 -6.12945,-20.79433 -0.47638,-1.66675 -0.97326,-3.31456 -1.10418,-3.6618 -0.18808,-0.49885 4.22518,-0.63135 21.02921,-0.63135 11.69698,0 21.26724,0.0953 21.26724,0.2118 0,0.32149 -10.01718,35.94415 -11.14016,39.61616 -0.53992,1.76546 -0.98167,3.29275 -0.98167,3.39397 0,0.10122 1.64781,0.94772 3.6618,1.8811 6.31271,2.92562 10.09324,7.63152 11.73917,14.61256 2.15984,9.16079 -0.34835,18.47326 -6.68117,24.80609 -6.5962,6.5962 -16.56072,9.10022 -24.88224,6.25274 z m 11.21309,-5.47876 c 9.18352,-1.94651 15.14078,-9.45482 15.11047,-19.04466 -0.0254,-8.03377 -5.18758,-15.20207 -12.83794,-17.82695 -1.97843,-0.67881 -2.60142,-1.12996 -2.5249,-1.82844 0.0904,-0.82542 4.55828,-19.64494 8.24422,-34.72631 0.74682,-3.05572 1.2635,-5.72631 1.14818,-5.93465 -0.11533,-0.20834 -6.10566,-0.37881 -13.31186,-0.37881 -11.42927,0 -13.10218,0.0988 -13.10218,0.7735 0,0.42543 2.28411,9.74757 5.07579,20.71587 2.79168,10.9683 4.93747,20.16617 4.76842,20.4397 -0.16906,0.27354 -0.71222,0.49734 -1.20704,0.49734 -1.74321,0 -7.04205,3.08336 -9.05875,5.27123 -10.10372,10.96123 -5.05533,28.35057 9.26042,31.89783 3.26602,0.80927 5.14631,0.84145 8.43517,0.14435 z"
       id="path3018"
       inkscape:connector-curvature="0" />
  </g>
</svg>
